<svg xmlns="http://www.w3.org/2000/svg" width="1640" height="560" viewBox="0 0 1640 560">

<path fill-rule="evenodd" d="M 228.00 362.80 L 228.00 273.52 L 228.00 273.52 L 228.00 272.44 L 228.02 271.37 L 228.04 270.29 L 228.06 269.21 L 228.10 268.14 L 228.14 267.06 L 228.20 265.98 L 228.26 264.91 L 228.33 263.83 L 228.40 262.76 L 228.49 261.69 L 228.58 260.61 L 228.68 259.54 L 228.79 258.47 L 228.91 257.40 L 229.03 256.33 L 229.16 255.26 L 229.30 254.19 L 229.45 253.12 L 229.61 252.06 L 229.77 250.99 L 229.95 249.93 L 230.13 248.87 L 230.31 247.81 L 230.51 246.75 L 230.71 245.69 L 230.93 244.64 L 231.15 243.58 L 231.37 242.53 L 231.61 241.48 L 231.85 240.43 L 232.11 239.38 L 232.36 238.33 L 232.63 237.29 L 232.91 236.25 L 233.19 235.21 L 233.48 234.17 L 233.78 233.14 L 234.08 232.11 L 234.40 231.08 L 234.72 230.05 L 235.05 229.02 L 235.38 228.00 L 235.73 226.98 L 236.08 225.96 L 236.44 224.94 L 236.81 223.93 L 237.18 222.92 L 237.56 221.92 L 237.95 220.91 L 238.35 219.91 L 238.76 218.91 L 239.17 217.92 L 239.59 216.92 L 240.02 215.94 L 240.45 214.95 L 240.89 213.97 L 241.34 212.99 L 241.80 212.01 L 242.26 211.04 L 242.73 210.07 L 243.21 209.11 L 243.70 208.15 L 244.19 207.19 L 244.69 206.23 L 245.19 205.28 L 245.71 204.34 L 246.23 203.39 L 246.76 202.45 L 247.29 201.52 L 247.83 200.59 L 248.38 199.66 L 248.94 198.74 L 249.50 197.82 L 250.07 196.91 L 250.65 196.00 L 251.23 195.09 L 251.82 194.19 L 252.42 193.29 L 253.02 192.40 L 253.63 191.51 L 254.25 190.63 L 254.87 189.75 L 255.50 188.88 L 256.14 188.01 L 256.78 187.15 L 257.43 186.29 L 258.09 185.43 L 258.75 184.58 L 259.42 183.74 L 260.09 182.90 L 260.77 182.06 L 261.46 181.23 L 262.15 180.41 L 262.85 179.59 L 263.56 178.78 L 264.27 177.97 L 264.99 177.17 L 265.71 176.37 L 266.44 175.58 L 267.18 174.79 L 267.92 174.01 L 268.66 173.23 L 269.42 172.46 L 270.18 171.70 L 270.94 170.94 L 271.71 170.18 L 272.49 169.44 L 273.27 168.70 L 274.06 167.96 L 274.85 167.23 L 275.65 166.51 L 276.45 165.79 L 277.26 165.08 L 278.07 164.37 L 278.89 163.67 L 279.71 162.98 L 280.54 162.29 L 281.38 161.61 L 282.22 160.94 L 283.06 160.27 L 283.91 159.61 L 284.77 158.95 L 285.63 158.30 L 286.49 157.66 L 287.36 157.02 L 288.23 156.39 L 289.11 155.77 L 289.99 155.15 L 290.88 154.54 L 291.77 153.94 L 292.67 153.34 L 293.57 152.75 L 294.48 152.17 L 295.39 151.59 L 296.30 151.02 L 297.22 150.46 L 298.14 149.90 L 299.07 149.35 L 300.00 148.81 L 300.00 148.81 L 300.93 149.35 L 301.86 149.90 L 302.78 150.46 L 303.70 151.02 L 304.61 151.59 L 305.52 152.17 L 306.43 152.75 L 307.33 153.34 L 308.23 153.94 L 309.12 154.54 L 310.01 155.15 L 310.89 155.77 L 311.77 156.39 L 312.64 157.02 L 313.51 157.66 L 314.37 158.30 L 315.23 158.95 L 316.09 159.61 L 316.94 160.27 L 317.78 160.94 L 318.62 161.61 L 319.46 162.29 L 320.29 162.98 L 321.11 163.67 L 321.93 164.37 L 322.74 165.08 L 323.55 165.79 L 324.35 166.51 L 325.15 167.23 L 325.94 167.96 L 326.73 168.70 L 327.51 169.44 L 328.29 170.18 L 329.06 170.94 L 329.82 171.70 L 330.58 172.46 L 331.34 173.23 L 332.08 174.01 L 332.82 174.79 L 333.56 175.58 L 334.29 176.37 L 335.01 177.17 L 335.73 177.97 L 336.44 178.78 L 337.15 179.59 L 337.85 180.41 L 338.54 181.23 L 339.23 182.06 L 339.91 182.90 L 340.58 183.74 L 341.25 184.58 L 341.91 185.43 L 342.57 186.29 L 343.22 187.15 L 343.86 188.01 L 344.50 188.88 L 345.13 189.75 L 345.75 190.63 L 346.37 191.51 L 346.98 192.40 L 347.58 193.29 L 348.18 194.19 L 348.77 195.09 L 349.35 196.00 L 349.93 196.91 L 350.50 197.82 L 351.06 198.74 L 351.62 199.66 L 352.17 200.59 L 352.71 201.52 L 353.24 202.45 L 353.77 203.39 L 354.29 204.34 L 354.81 205.28 L 355.31 206.23 L 355.81 207.19 L 356.30 208.15 L 356.79 209.11 L 357.27 210.07 L 357.74 211.04 L 358.20 212.01 L 358.66 212.99 L 359.11 213.97 L 359.55 214.95 L 359.98 215.94 L 360.41 216.92 L 360.83 217.92 L 361.24 218.91 L 361.65 219.91 L 362.05 220.91 L 362.44 221.92 L 362.82 222.92 L 363.19 223.93 L 363.56 224.94 L 363.92 225.96 L 364.27 226.98 L 364.62 228.00 L 364.95 229.02 L 365.28 230.05 L 365.60 231.08 L 365.92 232.11 L 366.22 233.14 L 366.52 234.17 L 366.81 235.21 L 367.09 236.25 L 367.37 237.29 L 367.64 238.33 L 367.89 239.38 L 368.15 240.43 L 368.39 241.48 L 368.63 242.53 L 368.85 243.58 L 369.07 244.64 L 369.29 245.69 L 369.49 246.75 L 369.69 247.81 L 369.87 248.87 L 370.05 249.93 L 370.23 250.99 L 370.39 252.06 L 370.55 253.12 L 370.70 254.19 L 370.84 255.26 L 370.97 256.33 L 371.09 257.40 L 371.21 258.47 L 371.32 259.54 L 371.42 260.61 L 371.51 261.69 L 371.60 262.76 L 371.67 263.83 L 371.74 264.91 L 371.80 265.98 L 371.86 267.06 L 371.90 268.14 L 371.94 269.21 L 371.96 270.29 L 371.98 271.37 L 372.00 272.44 L 372.00 273.52 L 372.00 273.52 L 372.00 362.80 Z M 283.44 273.52 A 16.56 16.56 0 1 0 316.56 273.52 A 16.56 16.56 0 1 0 283.44 273.52 Z M 291.35 273.52 L 308.65 273.52 L 304.40 322.48 L 295.60 322.48 Z" fill="#D6A23E"/>
<rect x="215.04" y="358.48" width="169.92" height="14.40" rx="7.20" fill="#D6A23E"/>
<path d="M68 0V706H180L458 273H401L678 706H791V0H634V441L662 434L481 152H377L197 434L224 441V0Z" fill="#16201F" transform="translate(564.00,290.76) scale(0.13000,-0.13000)"/>
<path d="M405 -12Q325 -12 257.5 16.0Q190 44 139.0 94.0Q88 144 60.0 210.5Q32 277 32 354Q32 432 60.0 498.0Q88 564 138.0 613.5Q188 663 255.5 690.5Q323 718 403 718Q482 718 549.5 690.5Q617 663 667.5 613.5Q718 564 746.0 497.5Q774 431 774 353Q774 276 746.0 209.5Q718 143 668.0 93.5Q618 44 550.5 16.0Q483 -12 405 -12ZM403 131Q466 131 513.5 159.0Q561 187 587.0 237.5Q613 288 613 354Q613 404 598.0 444.5Q583 485 555.0 514.5Q527 544 488.5 559.5Q450 575 403 575Q340 575 292.5 547.5Q245 520 219.0 470.5Q193 421 193 354Q193 304 208.0 263.0Q223 222 250.5 192.5Q278 163 317.0 147.0Q356 131 403 131Z" fill="#16201F" transform="translate(679.54,290.76) scale(0.13000,-0.13000)"/>
<path d="M401 -11Q324 -11 256.5 17.0Q189 45 139.0 94.5Q89 144 60.5 210.5Q32 277 32 354Q32 431 61.0 497.0Q90 563 141.5 612.5Q193 662 262.0 689.5Q331 717 410 717Q501 717 575.5 684.0Q650 651 699 593L592 486Q558 530 512.0 552.0Q466 574 408 574Q346 574 297.0 546.5Q248 519 220.5 469.5Q193 420 193 354Q193 288 220.0 238.0Q247 188 294.0 160.0Q341 132 402 132Q464 132 507.5 155.5Q551 179 574.5 223.5Q598 268 598 332L702 262L387 267V400H758V377Q758 250 712.5 163.5Q667 77 586.5 33.0Q506 -11 401 -11Z" fill="#16201F" transform="translate(788.32,290.76) scale(0.13000,-0.13000)"/>
<path d="M15 0 295 706H437L714 0H548L336 586H393L178 0ZM174 128V256H559V128Z" fill="#16201F" transform="translate(894.37,290.76) scale(0.13000,-0.13000)"/>
<path d="M174 0V138H349Q413 138 461.0 163.5Q509 189 535.0 238.0Q561 287 561 354Q561 421 534.5 469.0Q508 517 460.5 543.0Q413 569 349 569H169V706H351Q431 706 498.5 680.5Q566 655 616.5 607.5Q667 560 694.5 495.5Q722 431 722 353Q722 276 694.5 211.0Q667 146 617.0 99.0Q567 52 499.5 26.0Q432 0 353 0ZM68 0V706H225V0Z" fill="#16201F" transform="translate(993.14,290.76) scale(0.13000,-0.13000)"/>
<path d="M68 0V706H225V0Z" fill="#16201F" transform="translate(1095.16,290.76) scale(0.13000,-0.13000)"/>
<path d="M280 -11Q193 -11 130.5 17.5Q68 46 16 104L118 205Q152 166 193.5 144.5Q235 123 290 123Q340 123 367.5 141.0Q395 159 395 191Q395 220 377.0 238.0Q359 256 329.5 269.0Q300 282 264.5 294.0Q229 306 194.0 321.5Q159 337 129.5 360.5Q100 384 82.0 419.5Q64 455 64 509Q64 574 95.5 621.0Q127 668 183.0 692.5Q239 717 312 717Q386 717 447.5 691.0Q509 665 549 620L447 519Q415 552 382.5 568.0Q350 584 309 584Q268 584 244.0 568.5Q220 553 220 524Q220 497 238.0 480.5Q256 464 285.5 452.0Q315 440 350.5 428.0Q386 416 421.0 400.0Q456 384 485.5 359.5Q515 335 533.0 297.5Q551 260 551 205Q551 104 479.0 46.5Q407 -11 280 -11Z" fill="#16201F" transform="translate(1137.25,290.76) scale(0.13000,-0.13000)"/>
<path d="M68 0V706H225V0ZM505 0V706H663V0ZM162 295V431H557V295Z" fill="#16201F" transform="translate(1217.04,290.76) scale(0.13000,-0.13000)"/>
<path d="M352 -11Q265 -11 198.5 26.0Q132 63 94.5 128.5Q57 194 57 278V706H215V269Q215 227 233.0 196.0Q251 165 282.5 148.5Q314 132 352 132Q392 132 422.0 148.5Q452 165 469.5 195.5Q487 226 487 268V706H645V277Q645 193 608.0 128.0Q571 63 505.0 26.0Q439 -11 352 -11Z" fill="#16201F" transform="translate(1315.94,290.76) scale(0.13000,-0.13000)"/>
<path d="M145 302V381H333Q394 381 427.0 412.0Q460 443 460 496Q460 546 427.5 579.0Q395 612 334 612H145V694H337Q403 694 452.0 668.5Q501 643 527.5 599.0Q554 555 554 498Q554 439 527.5 395.0Q501 351 452.0 326.5Q403 302 337 302ZM82 0V694H176V0ZM482 0 230 311 319 342 601 0Z" fill="#D6A23E" transform="translate(815.41,361.02) scale(0.05800,-0.05800)"/>
<path d="M82 0V694H176V0ZM146 0V86H544V0ZM146 314V396H511V314ZM146 608V694H539V608Z" fill="#D6A23E" transform="translate(891.95,361.02) scale(0.05800,-0.05800)"/>
<path d="M82 0V694H148L176 585V0ZM562 0 136 569 148 694 575 126ZM562 0 534 103V694H628V0Z" fill="#D6A23E" transform="translate(966.17,361.02) scale(0.05800,-0.05800)"/>
<path d="M266 0V674H360V0ZM30 608V694H595V608Z" fill="#D6A23E" transform="translate(1047.35,361.02) scale(0.05800,-0.05800)"/>
<path d="M275 -10Q193 -10 135.0 20.0Q77 50 32 107L96 171Q129 125 172.0 101.5Q215 78 278 78Q340 78 377.5 105.0Q415 132 415 179Q415 218 397.0 242.0Q379 266 348.5 281.5Q318 297 282.0 309.5Q246 322 210.0 336.5Q174 351 144.0 372.5Q114 394 95.5 429.0Q77 464 77 517Q77 576 105.5 617.5Q134 659 183.5 681.5Q233 704 295 704Q363 704 417.0 677.5Q471 651 505 608L441 544Q410 580 374.5 598.0Q339 616 293 616Q237 616 204.0 591.5Q171 567 171 523Q171 488 189.5 466.5Q208 445 238.0 430.0Q268 415 304.5 402.5Q341 390 377.0 375.0Q413 360 443.0 337.0Q473 314 491.5 277.5Q510 241 510 186Q510 94 446.5 42.0Q383 -10 275 -10Z" fill="#D6A23E" transform="translate(1123.60,361.02) scale(0.05800,-0.05800)"/>
<circle cx="781.41" cy="340.89" r="5" fill="#D6A23E"/><circle cx="1189.79" cy="340.89" r="5" fill="#D6A23E"/>
</svg>