<svg xmlns="http://www.w3.org/2000/svg" viewBox="175 130 250 250">
  <!-- Mogadishu Rents arch mark — icon only, transparent background, brand coral -->
  <path fill-rule="evenodd" d="M 228.00 362.80 L 228.00 273.52 L 228.00 273.52 L 228.00 272.44 L 228.02 271.37 L 228.04 270.29 L 228.06 269.21 L 228.10 268.14 L 228.14 267.06 L 228.20 265.98 L 228.26 264.91 L 228.33 263.83 L 228.40 262.76 L 228.49 261.69 L 228.58 260.61 L 228.68 259.54 L 228.79 258.47 L 228.91 257.40 L 229.03 256.33 L 229.16 255.26 L 229.30 254.19 L 229.45 253.12 L 229.61 252.06 L 229.77 250.99 L 229.95 249.93 L 230.13 248.87 L 230.31 247.81 L 230.51 246.75 L 230.71 245.69 L 230.93 244.64 L 231.15 243.58 L 231.37 242.53 L 231.61 241.48 L 231.85 240.43 L 232.11 239.38 L 232.36 238.33 L 232.63 237.29 L 232.91 236.25 L 233.19 235.21 L 233.48 234.17 L 233.78 233.14 L 234.08 232.11 L 234.40 231.08 L 234.72 230.05 L 235.05 229.02 L 235.38 228.00 L 235.73 226.98 L 236.08 225.96 L 236.44 224.94 L 236.81 223.93 L 237.18 222.92 L 237.56 221.92 L 237.95 220.91 L 238.35 219.91 L 238.76 218.91 L 239.17 217.92 L 239.59 216.92 L 240.02 215.94 L 240.45 214.95 L 240.89 213.97 L 241.34 212.99 L 241.80 212.01 L 242.26 211.04 L 242.73 210.07 L 243.21 209.11 L 243.70 208.15 L 244.19 207.19 L 244.69 206.23 L 245.19 205.28 L 245.71 204.34 L 246.23 203.39 L 246.76 202.45 L 247.29 201.52 L 247.83 200.59 L 248.38 199.66 L 248.94 198.74 L 249.50 197.82 L 250.07 196.91 L 250.65 196.00 L 251.23 195.09 L 251.82 194.19 L 252.42 193.29 L 253.02 192.40 L 253.63 191.51 L 254.25 190.63 L 254.87 189.75 L 255.50 188.88 L 256.14 188.01 L 256.78 187.15 L 257.43 186.29 L 258.09 185.43 L 258.75 184.58 L 259.42 183.74 L 260.09 182.90 L 260.77 182.06 L 261.46 181.23 L 262.15 180.41 L 262.85 179.59 L 263.56 178.78 L 264.27 177.97 L 264.99 177.17 L 265.71 176.37 L 266.44 175.58 L 267.18 174.79 L 267.92 174.01 L 268.66 173.23 L 269.42 172.46 L 270.18 171.70 L 270.94 170.94 L 271.71 170.18 L 272.49 169.44 L 273.27 168.70 L 274.06 167.96 L 274.85 167.23 L 275.65 166.51 L 276.45 165.79 L 277.26 165.08 L 278.07 164.37 L 278.89 163.67 L 279.71 162.98 L 280.54 162.29 L 281.38 161.61 L 282.22 160.94 L 283.06 160.27 L 283.91 159.61 L 284.77 158.95 L 285.63 158.30 L 286.49 157.66 L 287.36 157.02 L 288.23 156.39 L 289.11 155.77 L 289.99 155.15 L 290.88 154.54 L 291.77 153.94 L 292.67 153.34 L 293.57 152.75 L 294.48 152.17 L 295.39 151.59 L 296.30 151.02 L 297.22 150.46 L 298.14 149.90 L 299.07 149.35 L 300.00 148.81 L 300.00 148.81 L 300.93 149.35 L 301.86 149.90 L 302.78 150.46 L 303.70 151.02 L 304.61 151.59 L 305.52 152.17 L 306.43 152.75 L 307.33 153.34 L 308.23 153.94 L 309.12 154.54 L 310.01 155.15 L 310.89 155.77 L 311.77 156.39 L 312.64 157.02 L 313.51 157.66 L 314.37 158.30 L 315.23 158.95 L 316.09 159.61 L 316.94 160.27 L 317.78 160.94 L 318.62 161.61 L 319.46 162.29 L 320.29 162.98 L 321.11 163.67 L 321.93 164.37 L 322.74 165.08 L 323.55 165.79 L 324.35 166.51 L 325.15 167.23 L 325.94 167.96 L 326.73 168.70 L 327.51 169.44 L 328.29 170.18 L 329.06 170.94 L 329.82 171.70 L 330.58 172.46 L 331.34 173.23 L 332.08 174.01 L 332.82 174.79 L 333.56 175.58 L 334.29 176.37 L 335.01 177.17 L 335.73 177.97 L 336.44 178.78 L 337.15 179.59 L 337.85 180.41 L 338.54 181.23 L 339.23 182.06 L 339.91 182.90 L 340.58 183.74 L 341.25 184.58 L 341.91 185.43 L 342.57 186.29 L 343.22 187.15 L 343.86 188.01 L 344.50 188.88 L 345.13 189.75 L 345.75 190.63 L 346.37 191.51 L 346.98 192.40 L 347.58 193.29 L 348.18 194.19 L 348.77 195.09 L 349.35 196.00 L 349.93 196.91 L 350.50 197.82 L 351.06 198.74 L 351.62 199.66 L 352.17 200.59 L 352.71 201.52 L 353.24 202.45 L 353.77 203.39 L 354.29 204.34 L 354.81 205.28 L 355.31 206.23 L 355.81 207.19 L 356.30 208.15 L 356.79 209.11 L 357.27 210.07 L 357.74 211.04 L 358.20 212.01 L 358.66 212.99 L 359.11 213.97 L 359.55 214.95 L 359.98 215.94 L 360.41 216.92 L 360.83 217.92 L 361.24 218.91 L 361.65 219.91 L 362.05 220.91 L 362.44 221.92 L 362.82 222.92 L 363.19 223.93 L 363.56 224.94 L 363.92 225.96 L 364.27 226.98 L 364.62 228.00 L 364.95 229.02 L 365.28 230.05 L 365.60 231.08 L 365.92 232.11 L 366.22 233.14 L 366.52 234.17 L 366.81 235.21 L 367.09 236.25 L 367.37 237.29 L 367.64 238.33 L 367.89 239.38 L 368.15 240.43 L 368.39 241.48 L 368.63 242.53 L 368.85 243.58 L 369.07 244.64 L 369.29 245.69 L 369.49 246.75 L 369.69 247.81 L 369.87 248.87 L 370.05 249.93 L 370.23 250.99 L 370.39 252.06 L 370.55 253.12 L 370.70 254.19 L 370.84 255.26 L 370.97 256.33 L 371.09 257.40 L 371.21 258.47 L 371.32 259.54 L 371.42 260.61 L 371.51 261.69 L 371.60 262.76 L 371.67 263.83 L 371.74 264.91 L 371.80 265.98 L 371.86 267.06 L 371.90 268.14 L 371.94 269.21 L 371.96 270.29 L 371.98 271.37 L 372.00 272.44 L 372.00 273.52 L 372.00 273.52 L 372.00 362.80 Z M 283.44 273.52 A 16.56 16.56 0 1 0 316.56 273.52 A 16.56 16.56 0 1 0 283.44 273.52 Z M 291.35 273.52 L 308.65 273.52 L 304.40 322.48 L 295.60 322.48 Z" fill="#D6A23E"/>
  <rect x="215.04" y="358.48" width="169.92" height="14.40" rx="7.20" fill="#D6A23E"/>
</svg>
